<svg xmlns="http://www.w3.org/2000/svg">
  <symbol id="advantage1" viewBox="0 0 30 30">
    <path id="Vector" d="M17.3562 20.65L12.6729 20.65L12.6729 30L17.3562 30L17.3562 20.65Z" fill="rgb(255,208.89,25.5)" fill-rule="evenodd" />
    <path id="Vector" d="M17.3562 0L12.6729 0L12.6729 9.35L17.3562 9.35L17.3562 0Z" fill="rgb(255,208.89,25.5)" fill-rule="evenodd" />
    <path id="Vector" d="M4.68333 0L0 0L0 9.35L4.68333 9.35L4.68333 0Z" fill="rgb(255,208.89,25.5)" fill-rule="evenodd" transform="matrix(6.12323e-17,-1,1,6.12323e-17,20.646,17.34)" />
    <path id="Vector" d="M4.68333 0L0 0L0 9.35L4.68333 9.35L4.68333 0Z" fill="rgb(255,208.89,25.5)" fill-rule="evenodd" transform="matrix(6.12323e-17,-1,1,6.12323e-17,0,17.3443)" />
    <path id="Vector" d="M4.68334 0L0 0L0 9.35L4.68334 9.35L4.68334 0Z" fill="rgb(63.75,63.75,63.75)" fill-rule="evenodd" transform="matrix(0.7071,-0.7071,0.7071,0.7071,17.3428,20.6377)" />
    <path id="Vector" d="M4.68333 0L0 0L0 9.35001L4.68333 9.35001L4.68333 0Z" fill="rgb(63.75,63.75,63.75)" fill-rule="evenodd" transform="matrix(0.7071,-0.7071,0.7071,0.7071,2.74316,6.03894)" />
    <path id="Vector" d="M4.68334 0L0 0L0 9.35001L4.68334 9.35001L4.68334 0Z" fill="rgb(63.75,63.75,63.75)" fill-rule="evenodd" transform="matrix(-0.7071,-0.7071,0.7071,-0.7071,20.6436,12.6647)" />
    <path id="Vector" d="M4.68333 0L0 0L0 9.35L4.68333 9.35L4.68333 0Z" fill="rgb(63.75,63.75,63.75)" fill-rule="evenodd" transform="matrix(-0.7071,-0.7071,0.7071,-0.7071,6.0459,27.2634)" />
  </symbol>
  <symbol id="advantage2" viewBox="0 0 30 30">
  	<path id="Rectangle 148" d="M15 21C15 24.3137 17.6863 27 21 27C24.3137 27 27 24.3137 27 21C27 17.6863 24.3137 15 21 15L15 15L15 21Z" fill="rgb(255,208.89,25.5)" fill-rule="evenodd" />
		<path id="Rectangle 147" d="M15 9C15 5.68629 12.3137 3 9 3C5.68629 3 3 5.68629 3 9C3 12.3137 5.68629 15 9 15L15 15L15 9Z" fill="rgb(255,208.89,25.5)" fill-rule="evenodd" />
		<path id="Subtract" d="M21 3C17.6863 3 15 5.68629 15 9L15 15L21 15C24.3137 15 27 12.3137 27 9C27 5.68629 24.3137 3 21 3ZM24 9C24 10.6569 22.6569 12 21 12C19.3431 12 18 10.6569 18 9C18 7.34315 19.3431 6 21 6C22.6569 6 24 7.34315 24 9Z" fill="rgb(63.75,63.75,63.75)" fill-rule="evenodd" />
		<path id="Subtract" d="M9 27C12.3137 27 15 24.3137 15 21L15 15L9 15C5.68629 15 3 17.6863 3 21C3 24.3137 5.68629 27 9 27ZM12 21C12 22.6569 10.6569 24 9 24C7.34315 24 6 22.6569 6 21C6 19.3431 7.34315 18 9 18C10.6569 18 12 19.3431 12 21Z" fill="rgb(63.75,63.75,63.75)" fill-rule="evenodd" />
  </symbol>
  <symbol id="advantage3" viewBox="0 0 30 30">
    <path id="Rectangle 162" d="M3 3L15 3C21.6274 3 27 8.37258 27 15L15 15C8.37258 15 3 9.62742 3 3Z" fill="rgb(255,208.89,25.5)" fill-rule="evenodd" />
    <path id="Rectangle 163" d="M3 15L15 15C21.6274 15 27 20.3726 27 27L15 27C8.37258 27 3 21.6274 3 15Z" fill="rgb(63.75,63.75,63.75)" fill-rule="evenodd" />
  </symbol>
  <symbol id="feature1" viewBox="0 0 60 60" >
	<path id="Subtract" d="M40.5 40.5C48.5048 38.5731 54 34.5949 54 30C54 25.4051 48.5048 21.4269 40.5 19.5C41.3235 22.6594 41.787 26.2257 41.787 30C41.787 33.7743 41.3235 37.3406 40.5 40.5Z" fill="rgb(63.75,63.75,63.75)" fill-rule="evenodd" />
	<path id="Subtract" d="M19.5 40.5C11.4952 38.5731 6 34.5949 6 30C6 25.4051 11.4952 21.4269 19.5 19.5C18.6765 22.6594 18.213 26.2257 18.213 30C18.213 33.7743 18.6765 37.3406 19.5 40.5Z" fill="rgb(63.75,63.75,63.75)" fill-rule="evenodd" />
	<path id="Subtract" d="M19.5 40.5C21.4269 48.5048 25.4051 54 30 54C34.5949 54 38.5731 48.5048 40.5 40.5C37.3406 41.3235 33.7743 41.787 30 41.787C26.2257 41.787 22.6594 41.3235 19.5 40.5Z" fill="rgb(255,208.89,25.5)" fill-rule="evenodd" />
	<path id="Subtract" d="M19.5 19.5C21.4269 11.4952 25.4051 6 30 6C34.5949 6 38.5731 11.4952 40.5 19.5C37.3406 18.6765 33.7743 18.213 30 18.213C26.2257 18.213 22.6594 18.6765 19.5 19.5Z" fill="rgb(255,208.89,25.5)" fill-rule="evenodd" />
  <symbol>
  <symbol id="feature2" viewBox="0 0 69.2876 60" >
	<path id="Vector" d="M18.5491 0L0 0L0 37.1367L18.5491 37.1367L18.5491 0Z" fill="rgb(255,208.89,25.5)" fill-rule="evenodd" transform="matrix(6.12323e-17,-1,1,6.12323e-17,16.0952,60)" />
	<path id="Vector" d="M18.5491 0L0 0L0 37.1367L18.5491 37.1367L18.5491 0Z" fill="rgb(63.75,63.75,63.75)" fill-rule="evenodd" transform="matrix(-0.866,0.5,-0.5,-0.866,69.2876,32.1604)" />
	<path id="Vector" d="M18.5491 0L0 0L0 37.1367L18.5491 37.1367L18.5491 0Z" fill="rgb(63.75,63.75,63.75)" fill-rule="evenodd" transform="matrix(0.866,0.5,-0.5,0.866,18.5684,0.0251465)" />
  <symbol>
</svg>