<svg xmlns="http://www.w3.org/2000/svg">
  <symbol id="chat" viewBox="0 0 24 24">
  	<path d="M8.48581 19.1888C9.54657 19.7083 10.7392 20 12 20C16.4183 20 20 16.4183 20 12C20 7.58172 16.4183 4 12 4C7.58172 4 4 7.58172 4 12C4 13.6401 4.49356 15.165 5.34026 16.4341M8.49231 19.1877L8.48581 19.1888L4 20L5.34026 16.4341L5.34154 16.4308" fill-rule="nonzero" stroke="currentColor" stroke-linecap="round" stroke-linejoin="round" stroke-width="1.5" fill="transparent" />
  </symbol>
  <symbol id="comment" viewBox="0 0 24 24">
    <path d="M4.1719 11.2951C3.36454 10.9281 3.39898 9.7697 4.22673 9.45134L18.8999 3.80781C19.7087 3.49675 20.5033 4.29139 20.1922 5.10013L14.5487 19.7733C14.2303 20.6011 13.072 20.6355 12.705 19.8281L10.0384 13.9616L4.1719 11.2951ZM10.0384 13.9616L14.4231 9.57704" fill-rule="evenodd" stroke="currentColor" stroke-linecap="round" stroke-linejoin="round" stroke-width="1.5" fill="transparent"/>
  </symbol>
  <symbol id="heart" viewBox="0 0 24 24">
  	<path d="M11.645 20.9107L11.6384 20.9072L11.6158 20.8949C11.5965 20.8844 11.5689 20.8693 11.5336 20.8496C11.4629 20.8101 11.3612 20.7524 11.233 20.6769C10.9765 20.5261 10.6132 20.3039 10.1785 20.015C9.31074 19.4381 8.15122 18.5901 6.9886 17.5063C4.68781 15.3615 2.25 12.1751 2.25 8.25C2.25 5.32194 4.7136 3 7.6875 3C9.43638 3 11.0023 3.79909 12 5.0516C12.9977 3.79909 14.5636 3 16.3125 3C19.2864 3 21.75 5.32194 21.75 8.25C21.75 12.1751 19.3122 15.3615 17.0114 17.5063C15.8488 18.5901 14.6893 19.4381 13.8215 20.015C13.3868 20.3039 13.0235 20.5261 12.767 20.6769C12.6388 20.7524 12.5371 20.8101 12.4664 20.8496C12.4311 20.8693 12.4035 20.8844 12.3842 20.8949L12.3616 20.9072L12.355 20.9107L12.3523 20.9121C12.1323 21.0289 11.8677 21.0289 11.6477 20.9121L11.645 20.9107Z" fill="currentColor" fill-rule="nonzero" />
  </symbol>
  <symbol id="arrow" viewBox="0 0 20 20">
    <path d="M6.875 3.125L16.25 3.125C16.4158 3.125 16.5747 3.19085 16.6919 3.30806C16.8092 3.42527 16.875 3.58424 16.875 3.75L16.875 13.125C16.875 13.4702 16.5952 13.75 16.25 13.75C15.9048 13.75 15.625 13.4702 15.625 13.125L15.625 5.25888L4.19194 16.6919C3.94786 16.936 3.55214 16.936 3.30806 16.6919C3.06398 16.4479 3.06398 16.0521 3.30806 15.8081L14.7411 4.375L6.875 4.375C6.52982 4.375 6.25 4.09518 6.25 3.75C6.25 3.40482 6.52982 3.125 6.875 3.125Z" fill="currentColor" fill-rule="evenodd" />
  </symbol>
  <symbol id="eye" viewBox="0 0 20 20">
  	<path  d="M18.3332 9.99985C18.3332 10.3608 18.2153 10.709 18.0023 10.9769C16.6536 12.6249 13.5836 15.8332 9.99984 15.8332C6.4161 15.8332 3.34616 12.6249 1.99744 10.9769C1.78442 10.709 1.6665 10.3608 1.6665 9.99985C1.6665 9.63888 1.78442 9.29073 1.99744 9.02277C3.34616 7.37484 6.4161 4.1665 9.99984 4.1665C13.5836 4.1665 16.6536 7.37484 18.0023 9.02277C18.2153 9.29073 18.3332 9.63888 18.3332 9.99985ZM12.5693 9.99973C12.5693 8.5679 11.4191 7.40717 10.0003 7.40717C8.58145 7.40717 7.43127 8.5679 7.43127 9.99973C7.43127 11.4316 8.58145 12.5923 10.0003 12.5923C11.4191 12.5923 12.5693 11.4316 12.5693 9.99973Z" fill-rule="evenodd" stroke="currentColor" stroke-linecap="round" stroke-linejoin="round" stroke-width="1.5" />
  </symbol>
  <symbol id="star" viewBox="0 0 20 20">
  	<path d="M13.0234 5.15701C13.1644 5.3975 13.3994 5.56821 13.6717 5.62799L17.8446 6.54408C18.5907 6.70788 18.8851 7.61391 18.3777 8.18498L15.5402 11.3789C15.3551 11.5873 15.2653 11.8635 15.2926 12.1409L15.7109 16.3927C15.7857 17.1529 15.0149 17.7128 14.315 17.4068L10.4006 15.6952C10.1452 15.5835 9.85478 15.5835 9.59936 15.6952L5.68496 17.4068C4.98506 17.7128 4.21434 17.1529 4.28913 16.3927L4.70736 12.1409C4.73465 11.8635 4.6449 11.5873 4.45975 11.3789L1.62229 8.18498C1.11494 7.61391 1.40933 6.70788 2.15545 6.54408L6.32833 5.62799C6.60062 5.56821 6.83559 5.39749 6.97658 5.15701L9.13733 1.47145C9.52367 0.812466 10.4763 0.812466 10.8627 1.47145L13.0234 5.15701Z" fill="currentColor" fill-rule="evenodd" />
  </symbol>
</svg>